<svg width="512" height="512" viewBox="0 0 512 512" fill="none" xmlns="http://www.w3.org/2000/svg">
<path d="M488 16.0001H460.976C440.585 15.9443 420.386 19.9335 401.547 27.7367C382.709 35.54 365.605 47.0022 351.227 61.4601C335.825 76.8801 322.016 93.8123 310.009 112H281.941C270.125 111.968 258.42 114.28 247.503 118.801C236.587 123.323 226.675 129.965 218.343 138.343C216.843 139.844 216 141.878 216 144C216 146.122 216.843 148.157 218.343 149.657L250.343 181.657C251.843 183.157 253.878 184 256 184H274.275C273.847 185.224 273.422 186.449 273.009 187.677L250.343 210.343C214.496 246.213 181.923 285.211 153.01 326.873C145.788 320.84 137.324 316.475 128.221 314.09C119.118 311.704 109.601 311.356 100.348 313.072C91.0951 314.787 82.3348 318.523 74.6917 324.013C67.0487 329.502 60.7112 336.611 56.1313 344.832C49.2196 343.4 42.0523 343.822 35.3561 346.054C28.6598 348.286 22.6728 352.248 18.002 357.54L29.998 368.127C32.2513 365.574 35.0216 363.529 38.1252 362.128C41.2288 360.727 44.5947 360.002 48 360C48.6728 360 49.3403 360.034 50.0036 360.088C48.6701 365.287 47.997 370.633 48 376H64C63.9966 366.739 66.6734 357.675 71.7074 349.901C76.7414 342.128 83.9175 335.977 92.3696 332.192C100.822 328.406 110.189 327.147 119.34 328.568C128.492 329.988 137.037 334.026 143.945 340.195C141.377 344.048 138.838 347.919 136.328 351.807L134.9 354.027C129.009 363.237 120.889 370.812 111.293 376.052C101.696 381.291 90.9333 384.025 80 384V400C93.6134 400.031 107.015 396.627 118.963 390.104C130.912 383.581 141.022 374.149 148.358 362.681L149.786 360.461C180.58 312.59 216.182 267.989 256.038 227.352L284.686 256L266.343 274.343C249.991 290.696 240.805 312.875 240.805 336C240.805 359.126 249.991 381.304 266.343 397.657L277.657 386.343C267.05 375.789 260.068 362.14 257.716 347.362C262.133 345.16 266.999 344.01 271.934 344C276.869 343.991 281.74 345.123 286.165 347.308C290.59 349.493 294.449 352.672 297.442 356.597C300.434 360.521 302.479 365.084 303.415 369.93C299.863 370.765 296.381 371.87 292.998 373.237L299.002 388.068C307.504 384.639 316.718 383.348 325.836 384.309C334.953 385.27 343.696 388.453 351.297 393.579C358.898 398.706 365.125 405.619 369.431 413.712C373.738 421.806 375.994 430.832 376 440H392C391.978 420.911 384.386 402.61 370.888 389.112C357.39 375.614 339.089 368.022 320 368C319.774 368 319.549 368.014 319.323 368.016C318.172 361.205 315.565 354.722 311.68 349.011C307.795 343.299 302.723 338.493 296.811 334.921C290.899 331.348 284.285 329.093 277.422 328.31C270.559 327.527 263.608 328.233 257.043 330.382C258.328 313.483 265.644 297.61 277.657 285.657L324.322 238.991C325.551 238.578 326.776 238.153 328 237.725V256C328 258.122 328.843 260.156 330.343 261.657L362.343 293.657C363.843 295.157 365.878 296 368 296C370.122 296 372.157 295.157 373.657 293.657C382.035 285.324 388.677 275.413 393.199 264.497C397.721 253.58 400.032 241.875 400 230.059V201.991C418.188 189.983 435.12 176.174 450.541 160.773C464.998 146.394 476.46 129.29 484.263 110.452C492.066 91.6138 496.055 71.4149 496 51.0245V24.0001C496 21.8784 495.157 19.8435 493.657 18.3433C492.156 16.843 490.122 16.0001 488 16.0001V16.0001ZM480 32.0001V51.0245C480.009 63.3932 478.379 75.7086 475.152 87.6488C463.304 86.3222 452.264 80.9928 443.855 72.5416L439.459 68.1451C431.008 59.7365 425.678 48.6959 424.351 36.8481C436.291 33.6208 448.607 31.9906 460.976 32.0001H480ZM259.313 168L235.614 144.3C248.726 133.708 265.085 127.952 281.941 128H300.082C292.602 140.868 286.012 154.232 280.358 168H259.313ZM267.314 216L280 203.314L308.686 232L296 244.686L267.314 216ZM384 230.059C384.048 246.915 378.292 263.274 367.699 276.386L344 252.687V231.642C357.768 225.988 371.132 219.397 384 211.918V230.059ZM439.227 149.46C406.204 182.4 366.184 207.476 322.139 222.825L289.175 189.862C304.524 145.816 329.6 105.796 362.541 72.7731C375.769 59.5019 391.545 49.0439 408.92 42.0284C411.227 56.2182 417.955 69.3175 428.144 79.4586L432.541 83.8551C442.682 94.045 455.781 100.773 469.971 103.08C462.955 120.455 452.497 136.231 439.227 149.46V149.46Z" fill="#525F7F"/>
<path d="M72.189 434.816C64.7128 432.136 56.6881 431.352 48.8346 432.537C40.9811 433.721 33.5444 436.837 27.1914 441.603L36.8008 454.396C41.5556 450.832 47.2089 448.662 53.1275 448.129C59.046 447.596 64.996 448.722 70.3109 451.38C75.6258 454.038 80.0958 458.123 83.22 463.178C86.3442 468.233 87.9994 474.058 88 480H104C104 472.843 102.397 465.777 99.3083 459.32C96.2198 452.864 91.7244 447.181 86.1521 442.689C91.6636 433.939 100.349 427.663 110.386 425.175C120.424 422.688 131.034 424.182 139.994 429.346L148.006 415.497C135.345 408.194 120.331 406.126 106.168 409.735C92.0041 413.345 79.811 422.345 72.1889 434.816L72.189 434.816Z" fill="#525F7F"/>
<path d="M224 400C210.223 399.991 196.928 405.069 186.665 414.261L197.335 426.183C203.959 420.27 212.36 416.729 221.218 416.115C230.075 415.501 238.885 417.851 246.261 422.794C253.636 427.736 259.159 434.992 261.959 443.417C264.758 451.843 264.676 460.96 261.726 469.334L276.812 474.666C279.79 466.218 280.7 457.179 279.465 448.308C278.23 439.436 274.886 430.989 269.713 423.676C264.541 416.363 257.691 410.397 249.737 406.278C241.783 402.158 232.957 400.005 224 400V400Z" fill="#525F7F"/>
</svg>
