<svg width="512" height="512" viewBox="0 0 512 512" fill="none" xmlns="http://www.w3.org/2000/svg">
<path d="M149.333 95.9999C149.359 88.014 147.143 80.1811 142.938 73.3922C138.732 66.6034 132.706 61.1311 125.544 57.5979C118.382 54.0646 110.372 52.6123 102.426 53.4062C94.4795 54.2 86.9154 57.208 80.594 62.0881C74.2725 66.9683 69.4476 73.5246 66.6681 81.0112C63.8885 88.4978 63.2659 96.6143 64.8711 104.437C66.4762 112.26 70.2447 119.476 75.7478 125.263C81.2509 131.05 88.2677 135.177 96.0001 137.173V214.827C86.9615 217.283 78.9823 222.645 73.2936 230.086C67.6049 237.527 64.5228 246.634 64.5228 256C64.5228 265.366 67.6049 274.473 73.2936 281.914C78.9823 289.355 86.9615 294.717 96.0001 297.173V374.827C85.9451 377.423 77.1821 383.597 71.3537 392.192C65.5253 400.787 63.0316 411.213 64.3402 421.515C65.6487 431.817 70.6696 441.288 78.4616 448.153C86.2537 455.018 96.282 458.805 106.667 458.805C117.052 458.805 127.08 455.018 134.872 448.153C142.664 441.288 147.685 431.817 148.993 421.515C150.302 411.213 147.808 400.787 141.98 392.192C136.151 383.597 127.388 377.423 117.333 374.827V297.173C126.372 294.717 134.351 289.355 140.04 281.914C145.729 274.473 148.811 265.366 148.811 256C148.811 246.634 145.729 237.527 140.04 230.086C134.351 222.645 126.372 217.283 117.333 214.827V137.173C126.469 134.814 134.565 129.494 140.355 122.044C146.145 114.594 149.303 105.435 149.333 95.9999V95.9999ZM85.3334 95.9999C85.3334 91.7806 86.5846 87.656 88.9288 84.1478C91.2729 80.6395 94.6047 77.9052 98.5029 76.2905C102.401 74.6758 106.69 74.2534 110.829 75.0765C114.967 75.8997 118.768 77.9315 121.752 80.915C124.735 83.8985 126.767 87.6998 127.59 91.838C128.413 95.9763 127.991 100.266 126.376 104.164C124.762 108.062 122.027 111.394 118.519 113.738C115.011 116.082 110.886 117.333 106.667 117.333C101.009 117.333 95.5826 115.086 91.5818 111.085C87.5811 107.084 85.3334 101.658 85.3334 95.9999ZM128 416C128 420.219 126.749 424.344 124.405 427.852C122.061 431.36 118.729 434.095 114.831 435.709C110.933 437.324 106.643 437.747 102.505 436.923C98.3666 436.1 94.5653 434.068 91.5818 431.085C88.5983 428.101 86.5665 424.3 85.7433 420.162C84.9202 416.024 85.3427 411.734 86.9573 407.836C88.572 403.938 91.3064 400.606 94.8146 398.262C98.3229 395.918 102.447 394.667 106.667 394.667C112.325 394.667 117.751 396.914 121.752 400.915C125.752 404.916 128 410.342 128 416ZM128 256C128 260.219 126.749 264.344 124.405 267.852C122.061 271.36 118.729 274.095 114.831 275.709C110.933 277.324 106.643 277.747 102.505 276.923C98.3666 276.1 94.5653 274.068 91.5818 271.085C88.5983 268.101 86.5665 264.3 85.7433 260.162C84.9202 256.024 85.3427 251.734 86.9573 247.836C88.572 243.938 91.3064 240.606 94.8146 238.262C98.3229 235.918 102.447 234.667 106.667 234.667C112.325 234.667 117.751 236.914 121.752 240.915C125.752 244.916 128 250.342 128 256Z" fill="#525F7F"/>
<path d="M437.333 64H192C189.171 64 186.458 65.1238 184.457 67.1242C182.457 69.1246 181.333 71.8377 181.333 74.6667C181.333 77.4956 182.457 80.2087 184.457 82.2091C186.458 84.2095 189.171 85.3333 192 85.3333H437.333C440.162 85.3333 442.875 84.2095 444.876 82.2091C446.876 80.2087 448 77.4956 448 74.6667C448 71.8377 446.876 69.1246 444.876 67.1242C442.875 65.1238 440.162 64 437.333 64Z" fill="#525F7F"/>
<path d="M192 128H330.666C333.495 128 336.208 126.876 338.209 124.876C340.209 122.875 341.333 120.162 341.333 117.333C341.333 114.504 340.209 111.791 338.209 109.791C336.208 107.79 333.495 106.667 330.666 106.667H192C189.171 106.667 186.458 107.79 184.457 109.791C182.457 111.791 181.333 114.504 181.333 117.333C181.333 120.162 182.457 122.875 184.457 124.876C186.458 126.876 189.171 128 192 128Z" fill="#525F7F"/>
<path d="M448 394.667C448 391.838 446.876 389.125 444.876 387.124C442.875 385.124 440.162 384 437.333 384H192C189.171 384 186.458 385.124 184.457 387.124C182.457 389.125 181.333 391.838 181.333 394.667C181.333 397.496 182.457 400.209 184.457 402.209C186.458 404.21 189.171 405.333 192 405.333H437.333C440.162 405.333 442.875 404.21 444.876 402.209C446.876 400.209 448 397.496 448 394.667Z" fill="#525F7F"/>
<path d="M192 426.667C189.171 426.667 186.458 427.79 184.457 429.791C182.457 431.791 181.333 434.504 181.333 437.333C181.333 440.162 182.457 442.875 184.457 444.876C186.458 446.876 189.171 448 192 448H330.666C333.495 448 336.208 446.876 338.209 444.876C340.209 442.875 341.333 440.162 341.333 437.333C341.333 434.504 340.209 431.791 338.209 429.791C336.208 427.79 333.495 426.667 330.666 426.667H192Z" fill="#525F7F"/>
<path d="M437.333 224H192C189.171 224 186.458 225.124 184.457 227.124C182.457 229.125 181.333 231.838 181.333 234.667C181.333 237.496 182.457 240.209 184.457 242.209C186.458 244.21 189.171 245.333 192 245.333H437.333C440.162 245.333 442.875 244.21 444.876 242.209C446.876 240.209 448 237.496 448 234.667C448 231.838 446.876 229.125 444.876 227.124C442.875 225.124 440.162 224 437.333 224Z" fill="#525F7F"/>
<path d="M192 288H330.666C333.495 288 336.208 286.876 338.209 284.876C340.209 282.875 341.333 280.162 341.333 277.333C341.333 274.504 340.209 271.791 338.209 269.791C336.208 267.79 333.495 266.667 330.666 266.667H192C189.171 266.667 186.458 267.79 184.457 269.791C182.457 271.791 181.333 274.504 181.333 277.333C181.333 280.162 182.457 282.875 184.457 284.876C186.458 286.876 189.171 288 192 288Z" fill="#525F7F"/>
</svg>
